<?xml version="1.0" standalone="no"?><svg xmlns="http://www.w3.org/2000/svg" xmlns:xlink="http://www.w3.org/1999/xlink" style="isolation:isolate" viewBox="0 0 64 64" width="64" height="64"><defs><clipPath id="_clipPath_Q98JHntCg9OCfDlTNROrS0eYKghhwfXU"><rect width="64" height="64"/></clipPath></defs><g clip-path="url(#_clipPath_Q98JHntCg9OCfDlTNROrS0eYKghhwfXU)"><path d=" M 61.408 13.733 C 61.404 13.717 61.397 13.702 61.393 13.686 C 61.291 13.322 61.174 12.966 61.047 12.613 C 61.013 12.518 60.979 12.423 60.943 12.329 C 60.817 11.999 60.683 11.674 60.537 11.355 C 60.488 11.249 60.436 11.146 60.386 11.041 C 60.235 10.73 60.081 10.421 59.91 10.122 C 59.867 10.046 59.819 9.975 59.775 9.9 C 59.202 8.93 58.531 8.027 57.773 7.202 C 57.69 7.112 57.611 7.019 57.527 6.931 C 57.307 6.702 57.076 6.483 56.843 6.267 C 56.739 6.171 56.636 6.075 56.53 5.982 C 56.291 5.772 56.046 5.57 55.795 5.375 C 55.691 5.294 55.585 5.217 55.479 5.139 C 55.212 4.942 54.943 4.749 54.664 4.568 C 54.594 4.523 54.521 4.482 54.45 4.438 C 53.532 3.864 52.553 3.383 51.524 3.003 C 51.363 2.943 51.205 2.881 51.042 2.826 C 50.79 2.742 50.534 2.669 50.276 2.597 C 50.055 2.535 49.832 2.477 49.607 2.425 C 49.378 2.372 49.149 2.322 48.916 2.279 C 48.629 2.225 48.339 2.184 48.048 2.146 C 47.862 2.122 47.677 2.093 47.489 2.075 C 46.996 2.029 46.5 2 46 2 C 45.5 2 45.004 2.029 44.513 2.075 C 44.325 2.092 44.14 2.122 43.954 2.146 C 43.663 2.184 43.373 2.225 43.086 2.279 C 42.853 2.322 42.624 2.372 42.395 2.425 C 42.17 2.477 41.948 2.535 41.726 2.597 C 41.468 2.669 41.212 2.742 40.96 2.826 C 40.797 2.881 40.638 2.943 40.477 3.003 C 39.448 3.383 38.469 3.864 37.551 4.438 C 37.48 4.482 37.407 4.523 37.337 4.568 C 37.058 4.749 36.789 4.942 36.522 5.139 C 36.416 5.217 36.31 5.295 36.206 5.375 C 35.955 5.57 35.71 5.773 35.471 5.982 C 35.365 6.075 35.262 6.171 35.158 6.267 C 34.924 6.483 34.694 6.701 34.474 6.931 C 34.389 7.019 34.31 7.112 34.228 7.202 C 33.47 8.027 32.799 8.93 32.226 9.9 C 32.182 9.975 32.134 10.047 32.091 10.122 C 31.921 10.421 31.767 10.729 31.616 11.04 C 31.565 11.145 31.512 11.249 31.464 11.355 C 31.318 11.674 31.184 11.998 31.058 12.328 C 31.022 12.423 30.988 12.518 30.953 12.614 C 30.826 12.967 30.71 13.323 30.608 13.686 C 30.604 13.702 30.597 13.717 30.593 13.733 C 30.592 13.738 30.594 13.742 30.592 13.747 C 30.217 15.104 30 16.526 30 18 L 30 24 L 30 26 C 30 29.309 32.691 32 36 32 C 36.748 32 37.462 31.856 38.123 31.605 C 38.164 31.589 38.206 31.576 38.247 31.56 C 38.525 31.447 38.791 31.312 39.046 31.161 C 39.094 31.133 39.141 31.105 39.188 31.075 C 39.439 30.916 39.679 30.742 39.903 30.549 C 39.934 30.523 39.962 30.495 39.993 30.468 C 40.469 30.042 40.876 29.544 41.197 28.988 C 41.205 28.975 41.213 28.962 41.221 28.948 C 41.375 28.676 41.506 28.389 41.617 28.092 C 41.63 28.057 41.643 28.023 41.655 27.988 C 41.757 27.698 41.839 27.399 41.896 27.091 C 41.904 27.05 41.908 27.009 41.915 26.968 C 41.966 26.651 42 26.33 42 26 L 42 24 C 42 23.67 41.966 23.349 41.915 23.033 C 41.908 22.992 41.904 22.951 41.896 22.91 C 41.839 22.602 41.757 22.303 41.655 22.013 C 41.643 21.978 41.63 21.944 41.617 21.909 C 41.506 21.612 41.375 21.326 41.221 21.053 C 41.213 21.04 41.205 21.027 41.197 21.013 C 40.876 20.457 40.468 19.958 39.993 19.533 C 39.963 19.506 39.934 19.478 39.903 19.452 C 39.679 19.259 39.439 19.084 39.188 18.926 C 39.141 18.896 39.094 18.868 39.046 18.84 C 38.79 18.689 38.525 18.553 38.247 18.441 C 38.206 18.425 38.164 18.411 38.123 18.396 C 37.462 18.144 36.748 18 36 18 C 35.638 18 35.284 18.038 34.94 18.1 C 34.91 18.105 34.879 18.108 34.85 18.114 C 34.523 18.178 34.207 18.272 33.901 18.387 C 33.86 18.402 33.819 18.416 33.778 18.432 C 33.482 18.55 33.2 18.693 32.93 18.855 C 32.887 18.881 32.844 18.906 32.802 18.933 C 32.539 19.1 32.291 19.285 32.058 19.489 C 32.04 19.505 32.019 19.516 32.001 19.531 L 32.001 18 C 32.001 16.97 32.121 15.968 32.333 15 L 36 15 C 36.446 15 36.839 14.704 36.961 14.274 C 38.017 10.58 41.438 8 45.28 8 L 46.719 8 C 50.562 8 53.983 10.58 55.038 14.274 C 55.161 14.704 55.554 15 56 15 L 59.668 15 C 59.88 15.968 60 16.97 60 18 L 60 19.531 C 59.982 19.515 59.961 19.504 59.943 19.489 C 59.71 19.285 59.461 19.099 59.199 18.933 C 59.157 18.906 59.114 18.881 59.071 18.855 C 58.801 18.693 58.519 18.55 58.223 18.432 C 58.182 18.416 58.141 18.402 58.1 18.387 C 57.794 18.272 57.478 18.178 57.151 18.114 C 57.121 18.108 57.091 18.106 57.061 18.1 C 56.716 18.038 56.362 18 56 18 C 55.252 18 54.538 18.144 53.877 18.395 C 53.836 18.411 53.794 18.424 53.753 18.44 C 53.475 18.553 53.209 18.688 52.954 18.839 C 52.906 18.867 52.859 18.895 52.812 18.925 C 52.561 19.084 52.321 19.258 52.097 19.451 C 52.066 19.477 52.038 19.505 52.007 19.532 C 51.531 19.958 51.124 20.456 50.803 21.012 C 50.795 21.025 50.787 21.038 50.779 21.052 C 50.625 21.324 50.494 21.611 50.383 21.908 C 50.37 21.943 50.357 21.977 50.345 22.012 C 50.243 22.302 50.161 22.601 50.104 22.909 C 50.096 22.95 50.092 22.991 50.085 23.032 C 50.034 23.349 50 23.67 50 24 L 50 26 C 50 26.33 50.034 26.651 50.085 26.967 C 50.092 27.008 50.096 27.049 50.104 27.09 C 50.161 27.398 50.243 27.697 50.345 27.987 C 50.357 28.022 50.37 28.056 50.383 28.091 C 50.494 28.388 50.625 28.674 50.779 28.947 C 50.787 28.96 50.795 28.973 50.803 28.987 C 51.124 29.543 51.532 30.042 52.007 30.467 C 52.037 30.494 52.066 30.522 52.097 30.548 C 52.321 30.741 52.561 30.916 52.812 31.074 C 52.859 31.104 52.906 31.132 52.954 31.16 C 53.21 31.311 53.475 31.447 53.753 31.559 C 53.794 31.575 53.836 31.589 53.877 31.604 C 54.538 31.856 55.252 32 56 32 C 57.538 32 58.937 31.414 60 30.46 L 60 56.5 C 60 58.43 58.43 60 56.5 60 C 54.57 60 53 58.43 53 56.5 L 53 41.5 C 53 39.019 50.981 37 48.5 37 C 46.019 37 44 39.019 44 41.5 L 44 57.5 C 44 58.879 42.878 60 41.5 60 C 40.122 60 39 58.879 39 57.5 L 39 54.5 C 39 52.019 36.981 50 34.5 50 L 28 50 L 28 29 L 28 26 C 28 23.243 25.757 21 23 21 L 7 21 C 4.243 21 2 23.243 2 26 L 2 29 L 2 54 L 2 57 C 2 59.757 4.243 62 7 62 L 23 62 C 25.757 62 28 59.757 28 57 L 28 54 L 28 52 L 34.5 52 C 35.878 52 37 53.121 37 54.5 L 37 57.5 C 37 59.981 39.019 62 41.5 62 C 43.981 62 46 59.981 46 57.5 L 46 41.5 C 46 40.121 47.122 39 48.5 39 C 49.878 39 51 40.121 51 41.5 L 51 56.5 C 51 59.532 53.467 62 56.5 62 C 59.533 62 62 59.532 62 56.5 L 62 26 L 62 24 L 62 18 C 62 16.526 61.783 15.104 61.408 13.747 C 61.407 13.743 61.409 13.738 61.408 13.733 Z  M 4 26 C 4 24.346 5.346 23 7 23 L 23 23 C 24.654 23 26 24.346 26 26 L 26 28 L 4 28 L 4 26 L 4 26 Z  M 26 30 L 26 53 L 4 53 L 4 30 L 26 30 L 26 30 Z  M 26 57 C 26 58.654 24.654 60 23 60 L 7 60 C 5.346 60 4 58.654 4 57 L 4 55 L 26 55 L 26 57 L 26 57 Z  M 32 26 L 32 24 C 32 21.794 33.794 20 36 20 L 36 30 C 33.794 30 32 28.206 32 26 Z  M 39.928 26.71 C 39.916 26.773 39.904 26.836 39.889 26.898 C 39.84 27.109 39.779 27.315 39.698 27.511 C 39.684 27.545 39.668 27.578 39.653 27.612 C 39.571 27.797 39.473 27.973 39.365 28.142 C 39.328 28.2 39.29 28.257 39.25 28.313 C 39.128 28.484 38.996 28.649 38.849 28.799 C 38.839 28.809 38.831 28.82 38.822 28.83 C 38.662 28.99 38.484 29.131 38.298 29.262 C 38.252 29.294 38.205 29.325 38.158 29.356 C 38.108 29.388 38.052 29.412 38 29.442 L 38 20.555 C 38.052 20.585 38.108 20.609 38.158 20.641 C 38.205 20.672 38.252 20.703 38.298 20.735 C 38.483 20.866 38.661 21.007 38.822 21.167 C 38.832 21.177 38.84 21.188 38.849 21.198 C 38.996 21.348 39.128 21.513 39.25 21.684 C 39.29 21.74 39.328 21.797 39.365 21.855 C 39.473 22.024 39.571 22.2 39.653 22.385 C 39.668 22.419 39.684 22.452 39.698 22.486 C 39.779 22.683 39.84 22.889 39.889 23.099 C 39.903 23.161 39.916 23.224 39.928 23.287 C 39.97 23.521 40 23.757 40 24 L 40 26 C 40 26.243 39.97 26.479 39.928 26.71 Z  M 56.726 13 C 55.206 8.843 51.195 6 46.72 6 L 45.28 6 C 40.805 6 36.794 8.843 35.274 13 L 32.939 13 C 32.945 12.984 32.951 12.967 32.957 12.951 C 33.066 12.669 33.186 12.392 33.312 12.119 C 33.351 12.035 33.392 11.952 33.433 11.868 C 33.562 11.605 33.694 11.344 33.838 11.091 C 33.862 11.048 33.89 11.007 33.915 10.964 C 34.215 10.45 34.547 9.96 34.906 9.492 C 34.953 9.43 34.997 9.366 35.046 9.305 C 35.21 9.098 35.384 8.9 35.56 8.703 C 35.645 8.608 35.73 8.513 35.817 8.42 C 35.996 8.23 36.179 8.044 36.368 7.864 C 36.45 7.786 36.535 7.712 36.619 7.636 C 37.274 7.042 37.984 6.511 38.739 6.051 C 38.833 5.993 38.926 5.934 39.022 5.879 C 39.248 5.748 39.479 5.625 39.712 5.507 C 39.832 5.446 39.954 5.389 40.076 5.331 C 40.306 5.223 40.536 5.116 40.772 5.02 C 40.916 4.962 41.065 4.913 41.211 4.859 C 41.566 4.728 41.928 4.613 42.295 4.511 C 42.518 4.449 42.741 4.388 42.969 4.337 C 43.143 4.298 43.319 4.266 43.495 4.234 C 43.756 4.187 44.019 4.146 44.285 4.113 C 44.433 4.095 44.58 4.075 44.729 4.061 C 45.147 4.026 45.57 4 46 4 C 46.43 4 46.853 4.026 47.274 4.065 C 47.423 4.079 47.57 4.099 47.718 4.117 C 47.984 4.15 48.247 4.19 48.508 4.238 C 48.684 4.27 48.86 4.302 49.034 4.341 C 49.262 4.391 49.485 4.453 49.708 4.515 C 50.075 4.617 50.436 4.733 50.792 4.863 C 50.939 4.917 51.087 4.966 51.231 5.024 C 51.467 5.12 51.697 5.227 51.927 5.335 C 52.049 5.392 52.171 5.45 52.291 5.511 C 52.524 5.629 52.755 5.752 52.981 5.883 C 53.077 5.938 53.17 5.998 53.264 6.055 C 54.019 6.516 54.728 7.047 55.384 7.64 C 55.468 7.716 55.553 7.79 55.635 7.868 C 55.824 8.048 56.007 8.234 56.186 8.424 C 56.273 8.517 56.358 8.612 56.443 8.707 C 56.618 8.904 56.792 9.102 56.957 9.309 C 57.005 9.37 57.049 9.434 57.097 9.496 C 57.456 9.964 57.788 10.454 58.088 10.968 C 58.113 11.011 58.14 11.052 58.165 11.095 C 58.309 11.348 58.441 11.609 58.57 11.872 C 58.611 11.955 58.652 12.039 58.691 12.123 C 58.817 12.395 58.937 12.672 59.046 12.955 C 59.052 12.971 59.058 12.988 59.064 13.004 L 56.726 13.004 L 56.726 13 Z  M 52 24 C 52 23.757 52.03 23.521 52.072 23.29 C 52.084 23.227 52.096 23.164 52.111 23.102 C 52.16 22.891 52.221 22.685 52.302 22.489 C 52.316 22.455 52.332 22.422 52.347 22.388 C 52.429 22.203 52.527 22.027 52.635 21.858 C 52.672 21.8 52.71 21.743 52.75 21.687 C 52.872 21.516 53.004 21.351 53.151 21.201 C 53.161 21.191 53.169 21.18 53.178 21.17 C 53.338 21.01 53.516 20.869 53.702 20.738 C 53.748 20.706 53.795 20.675 53.842 20.644 C 53.892 20.612 53.948 20.588 54 20.558 L 54 29.445 C 53.948 29.415 53.892 29.391 53.842 29.359 C 53.795 29.328 53.748 29.297 53.702 29.265 C 53.517 29.134 53.339 28.993 53.178 28.833 C 53.168 28.823 53.16 28.812 53.151 28.802 C 53.004 28.652 52.872 28.487 52.75 28.316 C 52.71 28.26 52.672 28.203 52.635 28.145 C 52.527 27.976 52.429 27.8 52.347 27.615 C 52.332 27.581 52.316 27.548 52.302 27.514 C 52.221 27.317 52.16 27.111 52.111 26.901 C 52.097 26.839 52.084 26.776 52.072 26.713 C 52.03 26.479 52 26.243 52 26 L 52 24 L 52 24 Z  M 56 30 L 56 20 C 58.206 20 60 21.794 60 24 L 60 26 C 60 28.206 58.206 30 56 30 Z " fill="rgb(0,0,0)"/><path d=" M 10 45 C 10.186 45 10.371 44.961 10.555 44.925 L 15.376 48.782 C 15.556 48.926 15.777 49 16 49 C 16.147 49 16.295 48.968 16.433 48.901 C 16.78 48.734 17 48.385 17 48 L 17 36 C 17 35.615 16.78 35.266 16.433 35.099 C 16.087 34.932 15.676 34.979 15.375 35.219 L 10.554 39.076 C 10.371 39.039 10.186 39 10 39 C 8.346 39 7 40.346 7 42 C 7 43.654 8.346 45 10 45 Z  M 15 45.919 L 12 43.52 L 12 40.48 L 15 38.081 L 15 45.919 L 15 45.919 Z  M 10 41 L 10 43 C 9.449 43 9 42.552 9 42 C 9 41.448 9.449 41 10 41 Z " fill="rgb(0,0,0)"/><path d=" M 23 42 C 23 39.794 21.206 38 19 38 L 19 40 C 20.103 40 21 40.897 21 42 C 21 43.103 20.103 44 19 44 L 19 46 C 21.206 46 23 44.206 23 42 Z " fill="rgb(0,0,0)"/></g></svg>