<?xml version="1.0" standalone="no"?><!-- Generator: Gravit.io --><svg xmlns="http://www.w3.org/2000/svg" xmlns:xlink="http://www.w3.org/1999/xlink" style="isolation:isolate" viewBox="0 0 120 120" width="120" height="120"><defs><clipPath id="_clipPath_HPK79KnDyXEPnvpbDvCy1rJcKF7w3BAg"><rect width="120" height="120"/></clipPath></defs><g clip-path="url(#_clipPath_HPK79KnDyXEPnvpbDvCy1rJcKF7w3BAg)"><clipPath id="_clipPath_mw2wAIKA0VObSRVzqmrK2EeSCVWOvqts"><rect x="0" y="0" width="120" height="120" transform="matrix(1,0,0,1,0,0)" fill="rgb(255,255,255)"/></clipPath><g clip-path="url(#_clipPath_mw2wAIKA0VObSRVzqmrK2EeSCVWOvqts)"><g id="Group"><path d=" M 102.868 51.6 C 100.223 50.675 97.378 50.731 95.725 51.199 C 92.539 52.103 89.779 55.514 87.11 58.813 C 85.727 60.526 84.296 62.292 83.292 63.023 C 83.184 63.042 83.046 63.062 82.92 63.077 C 81.942 63.078 79.032 63.155 76.22 62.153 L 75.986 62.069 C 75.306 61.826 74.303 61.658 73.144 61.546 C 73.783 58.268 74.4 53.569 74.4 52.585 L 74.4 17.785 C 74.4 17.16 74.156 16.56 73.722 16.112 L 67.842 10.062 C 67.388 9.598 66.768 9.335 66.12 9.335 C 66.119 9.335 66.118 9.335 66.116 9.335 L 29.996 9.385 C 29.362 9.386 28.752 9.638 28.303 10.088 L 22.303 16.088 C 21.853 16.538 21.6 17.149 21.6 17.785 L 21.6 52.585 L 21.594 53.514 C 21.572 55.687 21.584 57.074 21.929 58.027 C 21.966 58.133 22.05 58.394 22.17 58.766 C 23.148 61.801 23.92 63.992 24.556 65.592 L 14.635 65.592 C 10.878 65.592 7.822 68.579 7.822 72.25 L 7.822 97.02 C 7.822 100.682 10.942 103.776 14.635 103.776 L 30.366 103.776 C 30.565 104.198 35.904 110.664 38.228 110.664 L 57.144 110.664 C 59.468 110.664 64.807 104.197 65.006 103.776 L 105.364 103.776 C 109.057 103.776 112.177 100.681 112.177 97.02 L 112.177 71.512 C 112.176 67.392 112.177 54.856 102.868 51.6 Z  M 74.375 66.59 L 74.61 66.674 C 78.011 67.888 82.062 67.877 83.052 67.877 C 83.13 67.877 83.208 67.873 83.286 67.866 C 84.848 67.712 85.396 67.376 85.603 67.249 C 87.313 66.197 88.949 64.174 90.842 61.832 C 92.729 59.501 95.312 56.306 97.033 55.818 C 97.782 55.606 99.648 55.559 101.282 56.132 C 106.205 57.853 107.15 64.46 107.332 68.893 L 64.871 68.893 L 64.416 66.187 C 68.609 66.065 73.194 66.169 74.375 66.59 Z  M 65.572 98.976 L 61.465 98.976 L 30.234 98.976 C 29.783 97.789 29.426 95.942 29.55 95.208 L 35.574 59.41 L 41.065 66.068 C 40.883 66.428 40.744 66.812 40.66 67.211 L 36.227 88.144 C 35.947 89.467 36.2 90.736 36.92 91.625 C 37.506 92.35 38.342 92.748 39.27 92.748 L 40.548 92.748 L 40.548 93.72 C 40.548 96.121 42.502 98.076 44.904 98.076 L 50.616 98.076 C 53.018 98.076 54.972 96.122 54.972 93.72 L 54.972 92.748 L 56.191 92.748 C 57.262 92.748 58.212 92.303 58.866 91.495 C 59.584 90.61 59.843 89.388 59.58 88.145 L 55.147 67.213 C 55.054 66.769 54.894 66.344 54.678 65.95 L 60.206 59.248 L 66.256 95.21 C 66.378 95.942 66.023 97.789 65.572 98.976 Z  M 50.616 82.404 L 44.904 82.404 C 42.502 82.404 40.548 84.358 40.548 86.76 L 40.548 89.75 L 39.266 89.753 C 39.197 89.701 39.036 89.358 39.161 88.764 L 43.594 67.832 C 43.771 66.992 44.717 66.227 45.574 66.227 L 50.231 66.227 C 51.09 66.227 52.033 66.991 52.211 67.831 L 56.644 88.764 C 56.718 89.114 56.676 89.428 56.533 89.605 C 56.479 89.671 56.392 89.747 56.189 89.747 L 54.972 89.747 L 54.972 86.759 C 54.972 84.359 53.018 82.404 50.616 82.404 Z  M 51.972 86.761 L 51.972 93.721 C 51.972 94.469 51.364 95.077 50.616 95.077 L 44.904 95.077 C 44.156 95.077 43.548 94.469 43.548 93.721 L 43.548 86.761 C 43.548 86.012 44.156 85.405 44.904 85.405 L 50.616 85.405 C 51.364 85.404 51.972 86.012 51.972 86.761 Z  M 50.231 63.228 L 45.574 63.228 C 44.724 63.228 43.891 63.47 43.156 63.89 L 36.677 56.034 C 37.003 55.78 37.402 55.62 37.798 55.62 L 58.008 55.62 C 58.363 55.62 58.721 55.748 59.028 55.96 L 52.538 63.828 C 51.83 63.448 51.038 63.228 50.231 63.228 Z  M 58.008 52.621 L 37.798 52.621 C 36.419 52.621 35.111 53.256 34.198 54.253 L 26.388 54.253 C 26.389 54 26.392 53.76 26.393 53.562 L 26.396 37.262 L 69.6 37.262 L 69.6 52.588 C 69.6 52.88 69.539 53.486 69.442 54.254 L 61.608 54.254 C 60.695 53.256 59.387 52.621 58.008 52.621 Z  M 69.6 31.573 L 69.6 34.261 L 26.396 34.261 L 26.396 31.573 L 69.6 31.573 L 69.6 31.573 Z  M 62.912 57.252 L 69.01 57.252 C 68.774 58.75 68.509 60.28 68.294 61.337 C 66.467 61.322 64.763 61.368 63.611 61.409 L 62.912 57.252 L 62.912 57.252 Z  M 68.784 28.573 L 66.72 28.573 L 66.72 23.053 L 68.785 23.053 L 68.785 28.573 L 68.784 28.573 Z  M 65.52 28.573 L 63.456 28.573 L 63.456 23.053 L 65.52 23.053 L 65.52 28.573 L 65.52 28.573 Z  M 62.256 28.573 L 60.192 28.573 L 60.192 23.053 L 62.256 23.053 L 62.256 28.573 L 62.256 28.573 Z  M 58.992 28.573 L 56.928 28.573 L 56.928 23.053 L 58.992 23.053 L 58.992 28.573 L 58.992 28.573 Z  M 55.728 28.573 L 53.664 28.573 L 53.664 23.053 L 55.729 23.053 L 55.729 28.573 L 55.728 28.573 Z  M 52.464 28.573 L 50.4 28.573 L 50.4 23.053 L 52.464 23.053 L 52.464 28.573 L 52.464 28.573 Z  M 49.2 28.573 L 47.136 28.573 L 47.136 23.053 L 49.2 23.053 L 49.2 28.573 L 49.2 28.573 Z  M 45.936 28.573 L 43.872 28.573 L 43.872 23.053 L 45.937 23.053 L 45.937 28.573 L 45.936 28.573 Z  M 42.672 28.573 L 40.608 28.573 L 40.608 23.053 L 42.672 23.053 L 42.672 28.573 L 42.672 28.573 Z  M 39.408 28.573 L 37.344 28.573 L 37.344 23.053 L 39.408 23.053 L 39.408 28.573 L 39.408 28.573 Z  M 36.144 28.573 L 34.08 28.573 L 34.08 23.053 L 36.144 23.053 L 36.144 28.573 L 36.144 28.573 Z  M 32.88 28.573 L 30.816 28.573 L 30.816 23.053 L 32.88 23.053 L 32.88 28.573 L 32.88 28.573 Z  M 29.616 28.573 L 27.552 28.573 L 27.552 23.053 L 29.616 23.053 L 29.616 28.573 L 29.616 28.573 Z  M 32.894 57.252 L 31.49 65.592 L 29.774 65.592 C 29.288 64.6 28.373 62.358 26.737 57.292 C 26.732 57.277 26.729 57.266 26.725 57.252 L 32.894 57.252 L 32.894 57.252 Z  M 30.995 14.184 L 65.107 14.136 L 69.6 18.76 L 69.6 20.052 L 26.4 20.052 L 26.4 18.779 L 30.995 14.184 L 30.995 14.184 Z  M 14.636 70.393 L 30.683 70.393 L 28.858 81.244 C 28.318 77.033 24.71 73.769 20.356 73.769 C 16.945 73.769 14.003 75.776 12.624 78.667 L 12.624 72.251 C 12.624 71.244 13.546 70.393 14.636 70.393 Z  M 25.927 82.34 C 25.927 85.414 23.428 87.913 20.354 87.913 C 17.282 87.913 14.783 85.414 14.783 82.34 C 14.783 79.267 17.282 76.768 20.354 76.768 C 23.428 76.769 25.927 79.268 25.927 82.34 Z  M 12.624 97.02 L 12.624 86.015 C 14.003 88.906 16.946 90.913 20.356 90.913 C 23.713 90.913 26.626 88.973 28.031 86.155 L 26.592 94.711 C 26.431 95.666 26.622 97.382 27.085 98.976 L 14.636 98.976 C 13.565 98.976 12.624 98.063 12.624 97.02 Z  M 56.896 105.865 L 38.478 105.865 C 37.975 105.545 37.069 104.471 36.502 103.777 L 58.873 103.777 C 58.304 104.471 57.398 105.545 56.896 105.865 Z  M 105.364 98.976 L 68.72 98.976 C 69.184 97.381 69.374 95.665 69.214 94.71 L 65.376 71.892 L 107.376 71.892 L 107.376 97.02 C 107.376 98.063 106.435 98.976 105.364 98.976 Z  M 76.524 74.585 C 72.248 74.585 68.768 78.064 68.768 82.34 C 68.768 86.617 72.247 90.096 76.524 90.096 C 76.595 90.096 76.662 90.096 76.729 90.096 C 76.783 90.096 76.837 90.094 76.89 90.088 C 80.998 89.896 84.281 86.495 84.281 82.34 C 84.28 78.064 80.801 74.585 76.524 74.585 Z  M 80.196 84.18 L 80.91 84.18 C 80.408 85.37 79.436 86.315 78.229 86.78 L 78.229 86.148 C 78.229 85.32 77.557 84.648 76.729 84.648 C 75.901 84.648 75.229 85.32 75.229 86.148 L 75.229 86.917 C 73.832 86.521 72.696 85.502 72.139 84.18 L 73.261 84.18 C 74.089 84.18 74.761 83.508 74.761 82.68 C 74.761 81.852 74.089 81.18 73.261 81.18 L 71.912 81.18 C 72.328 79.532 73.602 78.224 75.23 77.764 L 75.23 79.213 C 75.23 80.041 75.902 80.713 76.73 80.713 C 77.558 80.713 78.23 80.041 78.23 79.213 L 78.23 77.9 C 79.66 78.451 80.76 79.675 81.139 81.18 L 80.196 81.18 C 79.368 81.18 78.696 81.852 78.696 82.68 C 78.696 83.508 79.368 84.18 80.196 84.18 Z  M 100.252 83.983 L 88.853 83.983 C 84.918 83.983 84.918 88.312 84.918 89.734 L 84.918 89.858 C 84.918 91.28 84.918 95.609 88.853 95.609 L 100.252 95.609 C 104.185 95.609 104.185 91.28 104.185 89.858 L 104.185 89.734 C 104.185 88.312 104.185 83.983 100.252 83.983 Z  M 101.185 89.86 C 101.185 92.61 100.645 92.61 100.252 92.61 L 88.853 92.61 C 88.458 92.61 87.918 92.61 87.918 89.86 L 87.918 89.735 C 87.918 86.984 88.458 86.984 88.853 86.984 L 100.252 86.984 C 100.645 86.984 101.185 86.984 101.185 89.735 L 101.185 89.86 L 101.185 89.86 Z  M 16.292 82.34 C 16.292 84.582 18.115 86.405 20.356 86.405 C 22.596 86.405 24.42 84.582 24.42 82.34 C 24.42 80.099 22.596 78.276 20.356 78.276 C 18.115 78.276 16.292 80.1 16.292 82.34 Z  M 21.42 82.34 C 21.42 82.927 20.944 83.405 20.356 83.405 C 19.77 83.405 19.292 82.927 19.292 82.34 C 19.292 81.754 19.769 81.276 20.356 81.276 C 20.942 81.276 21.42 81.754 21.42 82.34 Z  M 95.268 81.3 C 97.558 81.3 99.42 79.438 99.42 77.148 C 99.42 74.858 97.558 72.996 95.268 72.996 C 92.978 72.996 91.116 74.858 91.116 77.148 C 91.116 79.438 92.977 81.3 95.268 81.3 Z  M 95.268 75.997 C 95.903 75.997 96.42 76.514 96.42 77.149 C 96.42 77.784 95.903 78.301 95.268 78.301 C 94.633 78.301 94.116 77.784 94.116 77.149 C 94.116 76.514 94.632 75.997 95.268 75.997 Z " fill="rgb(0,0,0)"/></g></g></g></svg>