<?xml version="1.0" standalone="no"?><!-- Generator: Gravit.io --><svg xmlns="http://www.w3.org/2000/svg" xmlns:xlink="http://www.w3.org/1999/xlink" style="isolation:isolate" viewBox="0 0 120 120" width="120" height="120"><defs><clipPath id="_clipPath_gF81BIab7kvXNe1Hp6N9XNyGtYfDuQil"><rect width="120" height="120"/></clipPath></defs><g clip-path="url(#_clipPath_gF81BIab7kvXNe1Hp6N9XNyGtYfDuQil)"><path d=" M 113.869 66.048 L 113.881 62.926 L 113.876 62.927 C 113.876 62.927 113.876 62.927 113.876 62.926 C 113.814 61.092 112.123 60.125 110.623 59.268 L 49.733 24.032 C 48.581 23.367 47.193 23 45.824 23 C 44.448 23 43.163 23.353 42.043 24.026 L 7.98 43.625 L 7.899 43.681 C 6.318 44.771 6.024 45.988 6.056 46.821 C 6.062 46.965 6.098 47.095 6.122 47.23 L 6 47.206 L 6.101 55.075 C 6.017 58.758 7.661 60.009 9.498 61.062 L 68.371 95.437 C 70.408 96.547 71.798 97 73.165 97 C 74.092 97 74.964 96.796 76.084 96.317 L 76.198 96.268 L 111.98 76.484 L 112.129 76.394 C 113.938 75.218 113.898 72.81 113.852 70.213 C 113.846 69.824 113.84 69.424 113.84 69.02 C 113.84 68.452 113.848 67.923 113.855 67.41 C 113.862 66.95 113.867 66.5 113.869 66.048 Z  M 111.409 70.303 C 111.44 72.156 111.469 73.906 110.795 74.344 L 75.124 94.069 C 74.314 94.414 73.748 94.555 73.164 94.555 C 72.242 94.555 71.187 94.186 69.542 93.29 L 10.903 59.05 L 10.714 58.941 C 9.373 58.173 8.487 57.666 8.544 55.131 L 8.494 49.873 C 9.025 50.314 9.665 50.686 10.213 51 L 69.011 85.332 C 70.841 86.33 72.046 86.737 73.164 86.737 C 73.895 86.737 74.607 86.566 75.599 86.137 L 111.086 66.301 C 111.214 66.214 111.312 66.128 111.423 66.042 C 111.421 66.484 111.417 66.923 111.408 67.372 C 111.402 67.897 111.393 68.439 111.393 69.02 C 111.394 69.455 111.401 69.885 111.409 70.303 Z  M 110.524 64.033 L 75.124 83.824 C 74.314 84.17 73.748 84.311 73.164 84.311 C 72.242 84.311 71.187 83.942 69.542 83.045 L 10.903 48.805 L 10.75 48.717 C 9.918 48.239 8.527 47.44 8.499 46.724 C 8.484 46.33 8.937 45.935 9.285 45.696 L 43.262 26.145 C 44.036 25.68 44.899 25.445 45.824 25.445 C 46.769 25.445 47.723 25.695 48.511 26.149 L 109.306 61.332 L 109.411 61.392 C 110.304 61.903 111.417 62.537 111.433 63.01 C 111.438 63.132 111.354 63.478 110.524 64.033 Z " fill="rgb(0,0,0)"/><path d=" M 76.816 44.975 C 77.513 45.183 77.712 45.557 77.257 45.81 L 44.503 64.005 C 44.048 64.257 43.111 64.295 42.416 64.086 L 42.416 64.086 C 41.717 63.877 41.519 63.504 41.974 63.251 L 74.729 45.055 C 75.182 44.803 76.12 44.766 76.816 44.975 L 76.816 44.975 Z " fill="rgb(0,0,0)"/><path d=" M 76.271 71.117 C 73.609 71.117 71.452 72.384 71.452 73.945 C 71.452 75.508 73.609 76.774 76.271 76.774 C 78.934 76.774 81.093 75.508 81.093 73.945 C 81.092 72.384 78.934 71.117 76.271 71.117 Z  M 76.15 76.457 C 74.66 76.457 73.454 76.034 73.454 75.513 C 73.454 74.992 74.66 74.569 76.15 74.569 C 77.638 74.569 78.845 74.992 78.845 75.513 C 78.845 76.034 77.638 76.457 76.15 76.457 Z " fill="rgb(0,0,0)"/><path d=" M 76.45 60.868 C 73.788 60.868 71.631 62.135 71.631 63.697 C 71.631 65.258 73.788 66.525 76.45 66.525 C 79.112 66.525 81.272 65.258 81.272 63.697 C 81.272 62.135 79.113 60.868 76.45 60.868 Z  M 76.329 66.208 C 74.839 66.208 73.633 65.785 73.633 65.264 C 73.633 64.743 74.839 64.32 76.329 64.32 C 77.817 64.32 79.024 64.743 79.024 65.264 C 79.024 65.785 77.817 66.208 76.329 66.208 Z " fill="rgb(0,0,0)"/><path d=" M 76.811 56.464 C 79.473 56.464 81.631 55.198 81.631 53.636 C 81.631 52.074 79.473 50.808 76.811 50.808 C 74.149 50.808 71.992 52.074 71.992 53.636 C 71.992 55.198 74.148 56.464 76.811 56.464 Z  M 76.688 54.26 C 78.177 54.26 79.384 54.683 79.384 55.203 C 79.384 55.724 78.177 56.148 76.688 56.148 C 75.2 56.148 73.992 55.724 73.992 55.203 C 73.992 54.683 75.199 54.26 76.688 54.26 Z " fill="rgb(0,0,0)"/><path d=" M 34.304 47.303 C 31.641 47.303 29.485 48.57 29.485 50.131 C 29.485 51.693 31.641 52.96 34.304 52.96 C 36.968 52.96 39.127 51.693 39.127 50.131 C 39.127 48.57 36.968 47.303 34.304 47.303 Z  M 34.182 52.643 C 32.693 52.643 31.487 52.22 31.487 51.699 C 31.487 51.178 32.693 50.755 34.182 50.755 C 35.673 50.755 36.88 51.178 36.88 51.699 C 36.88 52.22 35.673 52.643 34.182 52.643 Z " fill="rgb(0,0,0)"/><path d=" M 43.56 52.606 C 40.898 52.606 38.741 53.872 38.741 55.434 C 38.741 56.996 40.898 58.262 43.56 58.262 C 46.223 58.262 48.381 56.996 48.381 55.434 C 48.381 53.872 46.223 52.606 43.56 52.606 Z  M 43.438 57.945 C 41.949 57.945 40.743 57.522 40.743 57.001 C 40.743 56.481 41.949 56.058 43.438 56.058 C 44.927 56.058 46.134 56.481 46.134 57.001 C 46.134 57.522 44.927 57.945 43.438 57.945 Z " fill="rgb(0,0,0)"/><path d=" M 30.5 45.009 C 30.5 43.447 28.341 42.181 25.677 42.181 C 23.015 42.181 20.858 43.447 20.858 45.009 C 20.858 46.571 23.015 47.838 25.677 47.838 C 28.342 47.837 30.5 46.571 30.5 45.009 Z  M 25.555 47.521 C 24.066 47.521 22.86 47.098 22.86 46.577 C 22.86 46.056 24.066 45.633 25.555 45.633 C 27.045 45.633 28.253 46.056 28.253 46.577 C 28.253 47.098 27.045 47.521 25.555 47.521 Z " fill="rgb(0,0,0)"/><path d=" M 57.549 40.246 C 57.549 38.684 55.39 37.418 52.726 37.418 C 50.064 37.418 47.907 38.684 47.907 40.246 C 47.907 41.808 50.063 43.075 52.726 43.075 C 55.39 43.074 57.549 41.808 57.549 40.246 Z  M 52.603 42.758 C 51.114 42.758 49.91 42.335 49.91 41.814 C 49.91 41.293 51.114 40.87 52.603 40.87 C 54.095 40.87 55.302 41.293 55.302 41.814 C 55.302 42.335 54.095 42.758 52.603 42.758 Z " fill="rgb(0,0,0)"/><path d=" M 61.983 48.377 C 64.645 48.377 66.804 47.11 66.804 45.548 C 66.804 43.987 64.645 42.72 61.983 42.72 C 59.321 42.72 57.164 43.987 57.164 45.548 C 57.164 47.11 59.321 48.377 61.983 48.377 Z  M 61.861 46.173 C 63.351 46.173 64.556 46.596 64.556 47.116 C 64.556 47.638 63.35 48.06 61.861 48.06 C 60.372 48.06 59.165 47.638 59.165 47.116 C 59.165 46.596 60.372 46.173 61.861 46.173 Z " fill="rgb(0,0,0)"/><path d=" M 44.099 32.296 C 41.437 32.296 39.28 33.563 39.28 35.124 C 39.28 36.686 41.437 37.952 44.099 37.952 C 46.763 37.952 48.922 36.686 48.922 35.124 C 48.922 33.563 46.763 32.296 44.099 32.296 Z  M 43.978 37.636 C 42.489 37.636 41.283 37.213 41.283 36.692 C 41.283 36.172 42.489 35.748 43.978 35.748 C 45.467 35.748 46.675 36.172 46.675 36.692 C 46.675 37.213 45.467 37.636 43.978 37.636 Z " fill="rgb(0,0,0)"/></g></svg>