<?xml version="1.0" standalone="no"?><!-- Generator: Gravit.io --><svg xmlns="http://www.w3.org/2000/svg" xmlns:xlink="http://www.w3.org/1999/xlink" style="isolation:isolate" viewBox="0 0 120 120" width="120" height="120"><defs><clipPath id="_clipPath_zBwgMyB6OCDv8InTA3L3IzAtD5sGkWii"><rect width="120" height="120"/></clipPath></defs><g clip-path="url(#_clipPath_zBwgMyB6OCDv8InTA3L3IzAtD5sGkWii)"><g id="Group"><path d=" M 107.648 5.887 C 109.807 6.238 111.667 6.863 113.04 7.965 C 114.463 9.106 115.347 10.721 115.486 13.018 C 116.051 22.252 115.197 28.481 114.228 35.526 C 113.954 37.52 113.67 39.58 113.401 41.874 C 112.951 45.678 113.902 47.978 114.779 50.1 C 116.069 53.222 117.215 55.996 114.29 62.021 L 114.283 62.038 L 114.258 62.077 C 113.774 62.875 113.223 63.856 112.648 64.916 C 112.065 65.988 111.469 67.117 110.894 68.218 L 110.518 68.937 C 107.93 73.882 107.668 74.384 107.406 80.482 C 107.258 83.918 107.176 88.048 107.11 91.405 C 107.055 94.145 107.013 96.375 106.954 97.282 C 106.934 97.578 106.922 97.818 106.91 98.055 C 106.761 100.888 106.635 103.294 102.905 103.706 C 93.67 104.729 83.172 103.729 73.4 102.795 C 71.745 102.637 70.112 102.481 68.232 102.313 C 67.805 106.512 67.395 109.79 65.836 112.399 C 64.174 115.18 61.279 117.092 55.813 118.339 C 53.054 118.969 47.093 119.093 40.626 118.942 C 32.188 118.747 22.864 118.09 18.709 117.495 C 12.929 116.667 12.887 116.163 12.507 111.712 C 12.46 111.161 12.405 110.546 12.348 109.988 C 11.926 105.91 11.474 100.162 11.126 95.058 C 10.711 89.012 10.447 83.819 10.543 83.291 C 10.74 82.219 11.479 81.69 12.141 81.391 C 9.589 76.451 6.764 65.284 4.943 52.439 C 3.328 41.054 2.493 28.328 3.33 17.442 C 3.533 14.804 4.066 12.68 4.834 10.983 C 5.985 8.441 7.66 6.856 9.545 5.942 C 11.417 5.035 13.477 4.803 15.431 4.954 C 17.481 5.112 19.418 5.692 20.883 6.354 L 20.885 6.354 C 20.905 6.347 20.927 6.337 20.954 6.329 C 21.251 6.231 21.686 6.013 22.219 5.749 C 24.934 4.403 29.98 1.9 36.506 4.756 C 38.717 2.511 41.293 1.431 43.847 1.108 C 47.271 0.673 50.648 1.611 53.029 2.918 C 53.306 3.027 53.56 3.148 53.792 3.259 C 54.106 3.41 54.318 3.538 54.331 3.531 C 56.084 2.617 59.296 1.639 62.665 2.441 C 64.836 2.958 67.071 4.205 69.015 6.668 C 70.688 6.048 73.472 5.457 76.107 5.685 C 77.91 5.838 79.659 6.369 80.986 7.515 C 82.216 6.164 84.229 5.24 86.482 4.746 C 88.384 4.326 90.471 4.21 92.393 4.4 C 94.354 4.59 96.15 5.102 97.424 5.937 C 98.155 6.416 98.721 6.999 99.069 7.69 C 100.477 6.942 103.53 5.462 107.611 5.882 L 107.648 5.887 Z  M 112.168 9.049 C 111.01 8.118 109.377 7.579 107.458 7.266 C 103.523 6.863 100.608 8.441 99.457 9.061 C 99.245 9.177 99.084 9.264 98.948 9.318 L 98.183 9.634 L 98.005 8.824 C 97.854 8.14 97.37 7.567 96.663 7.103 C 95.577 6.394 94.003 5.954 92.264 5.784 C 90.486 5.608 88.547 5.717 86.776 6.107 C 84.506 6.606 82.542 7.555 81.635 8.94 L 81.134 9.706 L 80.529 9.019 C 79.432 7.774 77.755 7.224 75.991 7.073 C 73.311 6.843 70.48 7.525 69.06 8.145 L 68.549 8.367 L 68.22 7.92 C 66.427 5.48 64.352 4.274 62.344 3.798 C 59.365 3.089 56.524 3.953 54.973 4.761 C 54.373 5.075 53.864 4.833 53.192 4.511 C 52.987 4.413 52.757 4.304 52.495 4.205 L 52.451 4.188 L 52.401 4.161 C 50.235 2.958 47.145 2.088 44.02 2.483 C 41.632 2.787 39.216 3.837 37.181 6.06 L 36.835 6.438 L 36.373 6.221 C 30.232 3.328 25.406 5.722 22.834 6.996 C 22.278 7.273 21.819 7.5 21.436 7.634 C 21.295 7.713 21.142 7.799 20.875 7.782 C 20.759 7.774 20.641 7.747 20.534 7.71 C 20.443 7.681 20.369 7.648 20.312 7.624 C 18.971 7.016 17.2 6.485 15.327 6.342 C 13.591 6.208 11.773 6.408 10.15 7.196 C 8.54 7.975 7.104 9.343 6.104 11.556 C 5.4 13.11 4.909 15.079 4.721 17.546 C 3.891 28.331 4.718 40.953 6.321 52.249 C 8.214 65.595 11.173 77.054 13.739 81.409 L 14.179 82.155 L 13.287 82.446 C 12.86 82.587 12.037 82.856 11.909 83.543 C 11.832 83.963 12.106 89.012 12.514 94.967 C 12.865 100.075 13.314 105.808 13.732 109.847 C 13.808 110.578 13.853 111.117 13.895 111.596 C 14.191 115.054 14.223 115.444 18.907 116.116 C 23.029 116.707 32.282 117.359 40.654 117.554 C 47.022 117.702 52.863 117.588 55.509 116.983 C 60.55 115.832 63.181 114.133 64.643 111.685 C 66.128 109.2 66.481 105.843 66.918 101.491 L 66.987 100.806 L 67.672 100.866 C 69.319 101.009 71.409 101.209 73.531 101.412 C 83.229 102.338 93.65 103.331 102.752 102.323 C 105.309 102.039 105.405 100.177 105.521 97.986 C 105.536 97.706 105.551 97.425 105.566 97.193 C 105.625 96.261 105.67 94.07 105.721 91.378 C 105.788 87.999 105.87 83.839 106.018 80.428 C 106.292 74.018 106.569 73.489 109.288 68.295 L 109.664 67.576 C 110.252 66.45 110.854 65.306 111.427 64.251 C 111.995 63.204 112.546 62.226 113.045 61.401 C 115.691 55.944 114.658 53.444 113.495 50.628 C 112.551 48.344 111.529 45.869 112.018 41.716 C 112.277 39.513 112.569 37.394 112.85 35.341 C 113.809 28.368 114.653 22.205 114.098 13.1 C 113.984 11.24 113.287 9.946 112.168 9.049 Z  M 13.435 82.392 C 12.936 82.629 12.615 82.861 12.445 83.083 C 12.326 83.236 12.299 83.382 12.341 83.523 C 12.41 83.748 12.61 83.997 12.912 84.262 C 13.665 84.921 14.94 85.551 16.34 86.05 C 22.975 88.421 36.899 87.695 43.437 87.354 C 44.786 87.285 45.824 87.231 46.456 87.223 L 46.463 87.223 C 53.422 87.233 58.806 87.819 62.494 90.052 C 66.271 92.341 68.22 96.269 68.168 102.918 L 66.778 102.913 C 66.827 96.82 65.108 93.26 61.776 91.24 C 58.352 89.165 53.187 88.621 46.471 88.611 C 45.908 88.619 44.865 88.673 43.509 88.745 C 36.879 89.088 22.763 89.824 15.871 87.364 C 14.327 86.811 12.894 86.092 11.995 85.306 C 11.506 84.877 11.16 84.415 11.012 83.926 C 10.837 83.35 10.923 82.782 11.338 82.239 C 11.642 81.843 12.134 81.47 12.843 81.134 L 13.435 82.392 Z  M 63.517 92.218 C 64.09 86.727 66.842 81.695 69.433 76.95 C 73.336 69.809 76.868 63.35 71.463 57.379 C 67.845 53.38 68.85 44.809 69.947 35.46 C 71.189 24.855 72.553 13.224 67.375 6.848 L 68.452 5.971 C 74.005 12.806 72.605 24.739 71.33 35.615 C 70.27 44.643 69.302 52.921 72.493 56.448 C 78.56 63.152 74.805 70.021 70.653 77.615 C 68.126 82.241 65.444 87.147 64.9 92.359 L 63.517 92.218 Z  M 71.515 56.11 C 63.421 63.342 54.783 66.709 46.305 67.41 C 36.19 68.245 26.319 65.284 17.879 60.566 C 14.698 58.787 12.704 59.936 12.699 59.938 L 12.613 59.988 L 12.512 60.01 C 12.383 60.037 12.272 60.087 12.176 60.156 C 11.768 60.45 11.563 61.129 11.519 62.085 C 11.469 63.196 11.652 64.617 12.015 66.227 C 13.495 72.832 17.889 82.434 21.466 87.399 L 20.337 88.211 C 16.674 83.125 12.173 73.292 10.659 66.529 C 10.271 64.8 10.074 63.258 10.13 62.026 C 10.192 60.64 10.577 59.595 11.365 59.029 C 11.588 58.869 11.837 58.75 12.116 58.676 C 12.613 58.437 15.105 57.424 18.553 59.35 C 26.774 63.945 36.375 66.832 46.192 66.022 C 54.387 65.343 62.746 62.082 70.589 55.075 L 71.515 56.11 Z  M 5.269 45.454 C 17.773 55.63 29.513 60.403 39.955 60.944 C 51.455 61.539 61.405 56.989 69.072 48.872 L 70.085 49.826 C 62.139 58.236 51.821 62.949 39.883 62.332 C 29.158 61.776 17.143 56.908 4.392 46.533 L 5.269 45.454 Z  M 21.073 10.852 C 22.787 9.464 24.753 8.189 27.305 7.671 C 29.936 7.135 33.154 7.419 37.292 9.242 C 39.799 6.648 42.684 5.42 45.544 5.27 C 48.721 5.099 51.851 6.265 54.37 8.352 C 56.386 7.342 58.157 6.826 59.706 6.717 C 62.336 6.532 64.315 7.498 65.775 9.21 C 67.178 10.855 68.069 13.182 68.576 15.817 C 69.435 20.281 69.201 25.673 68.494 30.04 C 68.2 31.846 67.968 33.493 67.758 34.978 C 66.716 42.354 66.237 45.75 60.988 50.638 C 60.558 51.039 60.113 51.419 59.654 51.78 C 53.829 56.354 45.181 58.249 36.249 57.115 C 27.35 55.986 18.151 51.851 11.178 44.369 C 10.409 43.547 9.673 42.687 8.969 41.79 C 5.225 37.021 5.973 26.671 6.452 20.019 C 6.487 19.549 6.519 19.1 6.544 18.764 L 6.544 18.759 C 6.704 16.657 7.297 14.851 8.206 13.399 C 9.098 11.974 10.288 10.887 11.677 10.188 C 13.062 9.489 14.638 9.177 16.298 9.306 C 17.847 9.427 19.47 9.928 21.073 10.852 Z  M 27.582 9.032 C 25.136 9.531 23.247 10.847 21.582 12.235 L 21.194 12.559 L 20.769 12.292 C 19.223 11.326 17.664 10.808 16.194 10.694 C 14.789 10.585 13.463 10.845 12.302 11.43 C 11.141 12.016 10.14 12.93 9.389 14.135 C 8.594 15.405 8.075 16.995 7.932 18.863 L 7.932 18.863 C 7.9 19.327 7.87 19.715 7.843 20.118 C 7.376 26.56 6.652 36.583 10.064 40.928 C 10.75 41.803 11.462 42.633 12.195 43.421 C 18.934 50.651 27.824 54.645 36.425 55.737 C 44.994 56.824 53.261 55.03 58.794 50.685 C 59.231 50.342 59.646 49.986 60.042 49.621 C 64.927 45.066 65.384 41.825 66.38 34.788 C 66.587 33.328 66.817 31.705 67.121 29.823 C 67.805 25.589 68.037 20.377 67.21 16.076 C 66.745 13.666 65.95 11.559 64.717 10.114 C 63.542 8.733 61.939 7.955 59.799 8.105 C 58.332 8.209 56.608 8.74 54.597 9.8 L 54.173 10.022 L 53.812 9.704 C 51.5 7.656 48.575 6.5 45.614 6.658 C 42.971 6.799 40.288 7.994 37.971 10.546 L 37.628 10.924 L 37.166 10.711 C 33.112 8.844 30.042 8.53 27.582 9.032 Z  M 21.369 14.646 C 21.211 16.314 21.058 18.413 21.043 20.402 C 21.019 23.558 21.268 26.451 22.259 26.532 C 22.288 26.498 22.345 26.345 22.424 26.076 C 22.57 25.577 22.656 24.845 22.661 23.877 C 22.671 21.797 22.306 18.717 21.369 14.646 Z  M 19.655 20.397 C 19.682 16.771 20.142 12.888 20.292 11.655 C 20.337 11.292 20.579 11.089 20.895 11.005 C 20.969 10.986 21.053 10.973 21.132 10.968 C 21.211 10.963 21.288 10.966 21.355 10.973 C 21.676 11.013 21.94 11.193 22.029 11.524 C 23.508 17.111 24.062 21.246 24.049 23.882 C 24.044 24.986 23.938 25.848 23.758 26.461 C 23.521 27.271 23.121 27.748 22.602 27.886 C 22.503 27.911 22.399 27.923 22.293 27.923 C 20.176 27.913 19.625 24.322 19.655 20.397 Z  M 37.768 13.028 C 37.61 14.696 37.457 16.795 37.442 18.784 C 37.418 21.943 37.667 24.833 38.658 24.915 C 38.687 24.88 38.744 24.729 38.823 24.458 C 38.969 23.961 39.055 23.227 39.06 22.262 C 39.07 20.179 38.705 17.099 37.768 13.028 Z  M 36.054 18.779 C 36.081 15.155 36.541 11.27 36.692 10.04 C 36.736 9.674 36.978 9.471 37.294 9.387 C 37.368 9.368 37.452 9.355 37.531 9.35 C 37.61 9.348 37.687 9.348 37.754 9.358 C 38.075 9.397 38.339 9.575 38.428 9.909 C 39.908 15.494 40.461 19.629 40.449 22.267 C 40.444 23.368 40.337 24.23 40.157 24.845 C 39.92 25.653 39.52 26.13 39.001 26.268 C 38.902 26.293 38.799 26.308 38.692 26.305 C 36.573 26.295 36.025 22.704 36.054 18.779 Z  M 54.333 12.198 C 54.034 13.844 53.706 15.921 53.52 17.907 C 53.229 21.049 53.231 23.949 54.207 24.117 C 54.242 24.087 54.311 23.941 54.415 23.675 C 54.6 23.193 54.748 22.469 54.835 21.506 C 55.022 19.436 54.921 16.336 54.333 12.198 Z  M 52.137 17.781 C 52.471 14.187 53.261 10.346 53.515 9.128 C 53.592 8.767 53.851 8.585 54.17 8.53 C 54.242 8.518 54.326 8.513 54.41 8.515 C 54.486 8.518 54.565 8.525 54.629 8.54 C 54.948 8.607 55.198 8.807 55.257 9.145 C 56.257 14.834 56.457 19.001 56.218 21.632 C 56.119 22.731 55.941 23.578 55.709 24.176 C 55.405 24.962 54.965 25.404 54.437 25.495 C 54.338 25.512 54.234 25.517 54.126 25.507 C 52.016 25.317 51.774 21.691 52.137 17.781 Z  M 21.686 7.303 L 21.831 11.68 L 20.443 11.724 L 20.297 7.347 L 21.686 7.303 Z  M 37.378 5.435 L 38.124 9.958 L 36.751 10.183 L 36.007 5.658 L 37.378 5.435 Z  M 55.049 4.195 L 55.077 9.207 L 53.686 9.212 L 53.661 4.2 L 55.049 4.195 Z  M 81.423 7.987 C 82.389 9.98 82.324 11.527 81.645 12.683 C 81.193 13.453 80.477 14.021 79.615 14.417 C 78.797 14.792 77.851 15.012 76.88 15.098 C 74.26 15.331 71.365 14.56 70.372 13.231 L 71.488 12.403 C 72.209 13.367 74.558 13.905 76.762 13.71 C 77.587 13.636 78.377 13.456 79.037 13.154 C 79.652 12.873 80.151 12.485 80.447 11.981 C 80.899 11.213 80.904 10.109 80.171 8.592 L 81.423 7.987 Z  M 81.932 8.478 C 81.759 10.435 83.312 11.766 85.484 12.49 C 87.341 13.107 89.634 13.283 91.755 13.036 C 93.833 12.794 95.717 12.154 96.814 11.139 C 97.738 10.284 98.069 9.116 97.377 7.644 L 98.637 7.056 C 99.63 9.177 99.126 10.887 97.758 12.156 C 96.429 13.384 94.26 14.145 91.913 14.419 C 89.609 14.686 87.102 14.491 85.049 13.806 C 82.28 12.888 80.306 11.092 80.548 8.357 L 81.932 8.478 Z  M 99.442 8.995 C 98.58 11.193 99.996 12.742 102.169 13.594 C 103.565 14.142 105.252 14.417 106.897 14.412 C 108.53 14.407 110.111 14.128 111.301 13.569 C 112.882 12.828 113.73 11.536 112.858 9.676 L 114.115 9.089 C 115.409 11.848 114.189 13.75 111.892 14.829 C 110.513 15.474 108.725 15.795 106.897 15.8 C 105.084 15.805 103.214 15.501 101.663 14.891 C 98.773 13.755 96.92 11.615 98.148 8.488 L 99.442 8.995 Z  M 81.969 14.538 C 81.821 16.205 81.682 18.305 81.68 20.295 C 81.675 23.447 81.942 26.332 82.927 26.416 C 82.959 26.382 83.014 26.231 83.093 25.957 C 83.236 25.456 83.317 24.722 83.317 23.759 C 83.315 21.679 82.93 18.603 81.969 14.538 Z  M 80.289 20.295 C 80.294 16.677 80.731 12.786 80.874 11.554 C 80.916 11.188 81.156 10.981 81.47 10.897 C 81.541 10.877 81.625 10.865 81.707 10.86 C 81.783 10.855 81.863 10.857 81.929 10.865 C 82.25 10.902 82.517 11.079 82.609 11.41 L 82.609 11.41 C 84.123 16.983 84.703 21.116 84.706 23.759 C 84.706 24.865 84.607 25.727 84.431 26.337 C 84.202 27.148 83.804 27.627 83.283 27.768 C 83.189 27.795 83.085 27.807 82.972 27.807 C 80.857 27.81 80.284 24.22 80.289 20.295 Z  M 98.091 14.323 C 97.832 15.97 97.55 18.053 97.412 20.046 C 97.192 23.195 97.264 26.095 98.242 26.239 C 98.276 26.206 98.343 26.058 98.437 25.794 C 98.612 25.31 98.743 24.586 98.808 23.615 C 98.946 21.538 98.773 18.443 98.091 14.323 Z  M 96.024 19.955 C 96.273 16.368 96.975 12.5 97.204 11.272 C 97.271 10.909 97.526 10.721 97.842 10.657 C 97.911 10.642 97.995 10.637 98.081 10.637 C 98.158 10.637 98.234 10.645 98.301 10.657 L 98.304 10.657 C 98.622 10.716 98.877 10.911 98.943 11.247 C 100.075 16.914 100.374 21.076 100.196 23.707 C 100.122 24.803 99.964 25.656 99.744 26.263 C 99.457 27.056 99.03 27.508 98.504 27.612 C 98.402 27.634 98.299 27.639 98.19 27.632 C 96.078 27.491 95.75 23.872 96.024 19.955 Z  M 106.86 77.059 C 102.883 76.345 95.322 75.51 87.862 75.009 C 81.764 74.601 75.751 74.418 71.849 74.712 L 71.745 73.324 C 75.712 73.025 81.796 73.208 87.954 73.62 C 95.446 74.122 103.068 74.967 107.105 75.693 L 106.86 77.059 Z  M 95.248 96.158 C 93.065 96.872 86.193 97.165 80.504 96.536 C 76.317 96.074 72.698 95.073 71.787 93.31 C 71.612 92.969 71.461 92.556 71.34 92.094 C 70.935 90.533 70.856 88.32 71.224 86.324 C 71.612 84.232 72.501 82.342 74.04 81.547 C 74.264 81.431 74.507 81.337 74.763 81.27 C 76.907 80.712 81.947 80.559 86.657 80.848 C 90.701 81.097 94.549 81.68 96.216 82.626 L 96.248 82.644 C 96.804 83.002 97.249 83.545 97.587 84.217 C 98.276 85.588 98.531 87.539 98.402 89.459 C 98.274 91.376 97.763 93.292 96.923 94.604 C 96.488 95.278 95.962 95.807 95.347 96.118 L 95.295 96.143 L 95.248 96.158 Z  M 80.657 95.152 C 86.136 95.76 92.667 95.508 94.769 94.851 C 95.13 94.653 95.461 94.305 95.752 93.853 C 96.463 92.742 96.901 91.067 97.014 89.367 C 97.128 87.673 96.92 85.986 96.345 84.842 C 96.118 84.393 95.841 84.039 95.507 83.822 C 94.028 82.997 90.419 82.473 86.576 82.236 C 81.986 81.955 77.125 82.09 75.112 82.614 C 74.961 82.654 74.815 82.71 74.677 82.782 C 73.575 83.353 72.908 84.867 72.592 86.574 C 72.259 88.377 72.325 90.36 72.686 91.746 C 72.78 92.107 72.894 92.42 73.022 92.672 C 73.682 93.947 76.885 94.735 80.657 95.152 Z  M 70.29 34.832 C 70.915 34.375 71.696 33.982 72.597 33.646 C 76.465 32.214 82.759 31.841 88.448 32.342 C 94.228 32.851 99.457 34.296 101.068 36.494 C 101.243 36.734 101.381 36.986 101.48 37.248 C 102.024 38.72 101.374 40.353 99.85 42.104 C 98.457 43.705 96.303 45.446 93.67 47.279 C 87.262 51.738 86.58 56.841 86.027 60.961 C 85.298 66.41 84.775 70.313 74.005 69.658 L 74.087 68.27 C 83.569 68.846 84.021 65.481 84.651 60.783 C 85.239 56.386 85.968 50.942 92.874 46.135 C 95.419 44.364 97.486 42.697 98.798 41.19 C 99.978 39.832 100.517 38.656 100.171 37.727 C 100.122 37.589 100.045 37.453 99.944 37.317 C 98.588 35.464 93.754 34.21 88.329 33.73 C 82.814 33.244 76.752 33.592 73.076 34.953 C 72.293 35.245 71.626 35.578 71.113 35.956 L 70.29 34.832 Z  M 97.498 65.521 C 95.606 63.997 94.687 61.445 94.789 58.99 C 94.841 57.77 95.142 56.567 95.7 55.519 C 96.268 54.452 97.101 53.546 98.207 52.941 C 99.922 52.002 102.263 51.807 105.237 52.899 C 105.687 52.422 106.072 52.046 106.574 51.718 C 107.189 51.313 107.925 51.019 109.076 50.759 L 109.965 50.559 L 109.923 51.468 C 109.869 52.632 109.728 53.538 109.491 54.284 C 109.303 54.88 109.054 55.376 108.74 55.818 C 109.846 57.713 110.039 59.99 109.491 62.018 C 109.157 63.248 108.552 64.392 107.712 65.306 C 106.86 66.232 105.766 66.924 104.469 67.235 C 102.537 67.699 100.178 67.307 97.55 65.56 L 97.526 65.543 L 97.498 65.521 Z  M 96.179 59.044 C 96.095 61.08 96.829 63.179 98.346 64.417 C 100.606 65.911 102.574 66.262 104.148 65.884 C 105.156 65.642 106.013 65.098 106.687 64.365 C 107.374 63.619 107.87 62.678 108.147 61.66 C 108.639 59.84 108.421 57.787 107.315 56.169 L 107.011 55.727 L 107.364 55.322 C 107.71 54.922 107.974 54.462 108.162 53.867 C 108.298 53.439 108.397 52.948 108.461 52.363 C 107.991 52.513 107.638 52.681 107.337 52.879 C 106.87 53.185 106.472 53.61 105.934 54.19 L 105.608 54.539 L 105.166 54.361 C 102.414 53.254 100.329 53.363 98.872 54.161 C 98.02 54.628 97.37 55.334 96.925 56.174 C 96.468 57.031 96.221 58.026 96.179 59.044 Z  M 112.527 45.745 C 107.611 44.871 103.059 45.819 99.383 47.926 C 96.476 49.594 94.114 51.982 92.561 54.763 C 91.012 57.535 90.261 60.697 90.567 63.918 C 90.906 67.482 92.538 71.133 95.816 74.426 L 94.831 75.406 C 91.308 71.869 89.55 67.919 89.184 64.049 C 88.85 60.536 89.666 57.098 91.348 54.089 C 93.025 51.085 95.564 48.509 98.691 46.718 C 102.636 44.458 107.512 43.438 112.766 44.374 L 112.527 45.745 Z " fill="rgb(0,0,0)"/></g></g></svg>