<?xml version="1.0" standalone="no"?><!-- Generator: Gravit.io --><svg xmlns="http://www.w3.org/2000/svg" xmlns:xlink="http://www.w3.org/1999/xlink" style="isolation:isolate" viewBox="0 0 120 120" width="120" height="120"><defs><clipPath id="_clipPath_CmIqDNPTPNbYiEkiARdhEzwkFVMrfWli"><rect width="120" height="120"/></clipPath></defs><g clip-path="url(#_clipPath_CmIqDNPTPNbYiEkiARdhEzwkFVMrfWli)"><g id="Group"><path d=" M 61.803 19.182 L 60.031 29.602 L 69.244 28.13 L 72.859 17.416 L 88.837 14.864 L 89.009 13.619 C 89.423 10.611 85.245 8.973 83.872 8.435 C 81.628 7.555 78.958 6.935 78.958 6.935 L 69.731 8.409 L 58.927 1 L 50.46 2.352 L 57.355 10.386 L 51.982 11.244 L 45.858 6.609 L 37.367 7.966 L 44.492 21.947 L 61.803 19.182 Z  M 66.684 25.103 L 64.17 25.504 L 65.341 18.617 L 69.074 18.02 L 66.684 25.103 Z  M 56.986 4.746 L 58.124 4.564 L 64.865 9.186 L 61.288 9.757 L 56.986 4.746 Z  M 44.964 10.188 L 51.087 14.823 L 78.828 10.392 C 79.403 10.536 80.698 10.882 82.057 11.376 C 82.88 11.676 83.518 11.952 84.012 12.198 L 46.394 18.207 L 42.508 10.58 L 44.964 10.188 Z " fill="rgb(0,0,0)"/><path d=" M 16.567 82.626 L 13.387 83.81 C 13.792 84.898 14.239 85.987 14.714 87.046 L 17.81 85.657 C 17.364 84.664 16.946 83.645 16.567 82.626 Z " fill="rgb(0,0,0)"/><path d=" M 13.393 64.935 C 13.393 64.396 13.402 63.85 13.419 63.311 L 10.027 63.204 C 10.009 63.779 10 64.361 10 64.935 C 10 65.523 10.01 66.118 10.028 66.704 L 13.42 66.595 C 13.402 66.045 13.393 65.487 13.393 64.935 Z " fill="rgb(0,0,0)"/><path d=" M 13.63 69.87 L 10.253 70.197 C 10.365 71.355 10.516 72.523 10.702 73.669 L 14.051 73.125 C 13.877 72.051 13.735 70.956 13.63 69.87 Z " fill="rgb(0,0,0)"/><path d=" M 19.248 88.602 L 16.249 90.189 C 16.792 91.215 17.376 92.237 17.985 93.227 L 20.875 91.449 C 20.304 90.521 19.757 89.563 19.248 88.602 Z " fill="rgb(0,0,0)"/><path d=" M 22.683 94.185 L 19.914 96.147 C 20.585 97.094 21.296 98.032 22.028 98.936 L 24.665 96.801 C 23.979 95.953 23.312 95.073 22.683 94.185 Z " fill="rgb(0,0,0)"/><path d=" M 17.799 44.237 L 14.702 42.849 C 14.226 43.912 13.779 45.004 13.374 46.095 L 16.554 47.277 C 16.934 46.255 17.353 45.232 17.799 44.237 Z " fill="rgb(0,0,0)"/><path d=" M 24.66 33.074 L 22.023 30.939 C 21.291 31.843 20.58 32.782 19.908 33.731 L 22.678 35.692 C 23.307 34.802 23.974 33.922 24.66 33.074 Z " fill="rgb(0,0,0)"/><path d=" M 20.868 38.432 L 17.977 36.655 C 17.368 37.646 16.783 38.67 16.239 39.698 L 19.239 41.284 C 19.748 40.321 20.296 39.362 20.868 38.432 Z " fill="rgb(0,0,0)"/><path d=" M 29.11 28.25 L 26.769 25.794 C 25.927 26.596 25.101 27.436 24.313 28.289 L 26.808 30.59 C 27.546 29.789 28.321 29.002 29.11 28.25 Z " fill="rgb(0,0,0)"/><path d=" M 15.512 50.388 L 12.261 49.416 C 11.928 50.529 11.627 51.668 11.367 52.802 L 14.674 53.561 C 14.918 52.498 15.2 51.431 15.512 50.388 Z " fill="rgb(0,0,0)"/><path d=" M 26.811 99.283 L 24.317 101.584 C 25.105 102.438 25.931 103.278 26.773 104.08 L 29.113 101.623 C 28.325 100.872 27.55 100.084 26.811 99.283 Z " fill="rgb(0,0,0)"/><path d=" M 14.046 56.78 L 10.696 56.239 C 10.511 57.385 10.36 58.554 10.249 59.711 L 13.627 60.035 C 13.731 58.95 13.872 57.855 14.046 56.78 Z " fill="rgb(0,0,0)"/><path d=" M 14.683 76.344 L 11.376 77.105 C 11.636 78.237 11.938 79.377 12.272 80.491 L 15.522 79.516 C 15.209 78.472 14.927 77.405 14.683 76.344 Z " fill="rgb(0,0,0)"/><path d=" M 47.702 116.479 C 48.809 116.83 49.944 117.15 51.073 117.428 L 51.886 114.134 C 50.828 113.873 49.765 113.574 48.728 113.245 L 47.702 116.479 Z " fill="rgb(0,0,0)"/><path d=" M 34.14 24.039 L 32.134 21.302 C 31.197 21.988 30.27 22.715 29.379 23.461 L 31.557 26.063 C 32.393 25.363 33.262 24.682 34.14 24.039 Z " fill="rgb(0,0,0)"/><path d=" M 61.614 115.549 L 61.453 118.938 C 62.318 118.979 63.197 119 64.065 119 C 64.361 119 64.657 118.998 64.952 118.993 L 64.897 115.6 C 63.808 115.618 62.702 115.6 61.614 115.549 Z " fill="rgb(0,0,0)"/><path d=" M 54.498 118.156 C 55.64 118.36 56.806 118.53 57.963 118.659 L 58.342 115.287 C 57.258 115.166 56.165 115.007 55.095 114.816 L 54.498 118.156 Z " fill="rgb(0,0,0)"/><path d=" M 29.384 106.413 C 30.276 107.159 31.203 107.886 32.141 108.573 L 34.146 105.836 C 33.267 105.192 32.398 104.51 31.562 103.81 L 29.384 106.413 Z " fill="rgb(0,0,0)"/><path d=" M 39.667 20.512 L 38.03 17.54 C 37.014 18.099 36.001 18.7 35.021 19.325 L 36.846 22.186 C 37.765 21.6 38.714 21.036 39.667 20.512 Z " fill="rgb(0,0,0)"/><path d=" M 41.172 113.928 C 42.227 114.422 43.311 114.887 44.395 115.31 L 45.629 112.149 C 44.615 111.753 43.599 111.317 42.61 110.854 L 41.172 113.928 Z " fill="rgb(0,0,0)"/><path d=" M 35.032 110.551 C 36.014 111.177 37.028 111.778 38.047 112.339 L 39.682 109.365 C 38.727 108.84 37.777 108.277 36.857 107.69 L 35.032 110.551 Z " fill="rgb(0,0,0)"/><path d=" M 54.005 67.595 C 54.317 68.001 55.049 68.684 56.437 68.684 C 59.856 68.684 66.487 64.161 69.911 58.329 C 71.613 55.431 72.904 55.431 73.524 55.431 C 74.209 55.431 74.998 55.617 75.833 55.813 C 76.866 56.056 78.036 56.332 79.315 56.332 C 80.495 56.331 81.587 56.101 82.654 55.627 C 84.335 54.88 85.435 53.836 85.925 52.524 C 86.738 50.349 85.678 48.082 84.742 46.081 C 84.258 45.046 83.801 44.068 83.627 43.217 C 83.225 41.254 81.889 38.913 77.804 38.913 C 76.52 38.913 75.198 39.134 74.032 39.328 L 73.966 39.339 C 73.743 39.376 73.545 39.395 73.376 39.395 C 73.106 39.395 73.012 39.347 73.011 39.347 C 72.833 39.177 72.696 38.278 72.615 37.741 C 72.586 37.552 72.557 37.362 72.526 37.171 C 72.146 34.892 71.189 32.5 66.968 32.031 C 66.753 32.007 66.538 31.995 66.328 31.995 C 63.501 31.995 61.512 33.975 57.902 37.57 C 56.805 38.662 55.563 39.9 54.076 41.308 C 51.259 43.977 50.209 46.219 50.867 48.16 C 51.363 49.625 52.663 50.348 53.692 50.698 C 53.988 53.508 54.606 60.738 53.604 64.498 C 53.265 65.766 53.4 66.808 54.005 67.595 Z  M 54.08 47.071 C 54.077 47.063 53.917 46.133 56.41 43.771 C 57.927 42.334 59.186 41.081 60.296 39.975 C 63.266 37.017 64.902 35.388 66.328 35.388 C 66.414 35.388 66.501 35.393 66.593 35.403 C 68.742 35.642 68.938 36.289 69.178 37.729 C 69.207 37.903 69.234 38.078 69.26 38.25 C 69.501 39.836 69.948 42.788 73.376 42.788 C 73.731 42.788 74.117 42.754 74.524 42.686 L 74.59 42.675 C 75.677 42.494 76.8 42.306 77.804 42.306 C 79.811 42.306 80.131 43.059 80.303 43.897 C 80.557 45.142 81.122 46.35 81.669 47.519 C 82.353 48.982 83.061 50.496 82.747 51.337 C 82.588 51.763 82.093 52.163 81.276 52.526 C 80.643 52.807 80.02 52.938 79.315 52.938 C 78.43 52.938 77.546 52.73 76.611 52.51 C 75.624 52.278 74.603 52.038 73.525 52.038 C 70.895 52.038 68.817 53.491 66.985 56.611 C 64.262 61.249 59.149 64.733 56.919 65.23 C 58.286 59.838 56.982 49.548 56.926 49.109 L 56.765 47.78 L 55.432 47.64 C 54.819 47.567 54.14 47.252 54.08 47.071 Z " fill="rgb(0,0,0)"/><path d=" M 35.705 65.75 L 35.252 65.336 L 34.649 65.294 C 34.649 65.294 34.525 65.285 34.303 65.285 C 30.925 65.285 26.994 66.889 26.094 71.389 C 25.011 76.805 27.343 78.944 31.577 82.826 C 32.149 83.35 32.74 83.892 33.384 84.496 C 34.332 85.385 35.056 86.113 35.637 86.698 C 38.6 89.678 39.107 89.767 44.86 89.996 C 45.219 90.011 45.602 90.026 46.011 90.043 C 46.618 90.068 47.141 90.081 47.612 90.081 C 49.648 90.081 51.073 89.87 51.888 88.822 C 52.694 87.785 52.393 86.6 52.15 85.648 C 51.9 84.666 51.617 83.553 52.102 82.098 C 52.537 80.793 52.469 79.643 51.899 78.679 C 50.819 76.852 48.439 76.415 45.683 75.91 C 43.28 75.469 40.556 74.969 38.923 73.51 C 38.337 72.986 38.063 72.654 37.939 72.475 C 37.944 72.467 37.949 72.459 37.953 72.452 C 39.305 70.373 38.696 68.556 35.705 65.75 Z  M 45.071 79.247 C 46.423 79.495 48.686 79.91 48.978 80.406 C 48.992 80.429 49.02 80.615 48.883 81.025 C 48.083 83.425 48.571 85.341 48.862 86.485 C 48.874 86.532 48.887 86.582 48.9 86.633 C 48.619 86.663 48.208 86.687 47.612 86.687 C 47.189 86.687 46.711 86.676 46.152 86.653 C 45.741 86.636 45.357 86.62 44.996 86.606 C 42.486 86.506 41.103 86.45 40.329 86.182 C 39.718 85.971 39.294 85.563 38.044 84.305 C 37.443 83.702 36.697 82.95 35.704 82.02 C 35.047 81.403 34.421 80.83 33.87 80.325 C 29.614 76.422 28.737 75.477 29.421 72.054 C 29.968 69.318 32.449 68.774 33.866 68.691 C 34.905 69.733 35.163 70.25 35.225 70.419 C 35.192 70.473 35.146 70.545 35.108 70.603 C 33.926 72.422 34.376 73.997 36.662 76.04 C 39.005 78.134 42.369 78.752 45.071 79.247 Z " fill="rgb(0,0,0)"/><path d=" M 94.777 34.223 C 89.216 28.661 82.41 24.796 74.989 22.882 L 73.746 26.081 C 83.203 28.438 91.34 34.166 96.803 41.909 C 96.452 43.918 95.359 49.841 94.013 53.879 C 93.003 56.91 90.46 57.625 88.217 58.257 C 87.42 58.481 86.668 58.693 86.041 59.006 C 83.24 60.407 76.816 64.212 77.661 69.285 C 77.902 70.729 78.537 71.699 79.547 72.168 C 81.396 73.026 83.5 71.773 85.936 70.322 C 87 69.69 88.099 69.035 89.203 68.53 C 89.218 68.523 90.928 68.125 95.714 74.5 C 97.815 77.3 99.647 80.274 100.455 81.627 C 99.731 83.199 98.908 84.715 97.995 86.17 L 91.386 82.785 C 90.788 82.442 86.934 80.261 84.811 79.89 C 83.448 79.652 81.718 80.243 79.006 81.228 C 77.262 81.861 75.284 82.579 74.245 82.579 C 72.407 82.579 70.607 83.274 69.04 84.588 C 67.383 85.978 66.085 87.964 65.182 90.492 C 63.997 93.811 63.761 93.876 59.822 94.973 C 59.232 95.137 58.563 95.323 57.818 95.543 C 53.617 96.778 51.709 100.134 51.013 102.788 C 35.324 97.363 24.025 82.445 24.025 64.935 C 24.025 60.577 24.726 56.379 26.019 52.449 C 27.761 53.355 30.411 54.499 32.688 54.499 C 33.105 54.499 33.51 54.461 33.895 54.375 C 36.363 53.827 44.529 51.738 45.973 47.886 C 46.564 46.311 46.747 44.21 46.923 42.178 C 47.08 40.373 47.242 38.507 47.67 37.367 C 48.366 35.51 50.71 33.344 51.552 32.667 L 52.189 32.157 L 52.189 26.697 C 53.931 26.155 55.724 25.728 57.558 25.427 L 58.043 21.916 C 48.725 23.201 40.12 27.457 33.353 34.223 C 25.15 42.426 20.632 53.334 20.632 64.935 C 20.632 76.536 25.15 87.443 33.353 95.647 C 41.557 103.85 52.464 108.368 64.065 108.368 C 75.667 108.368 86.574 103.85 94.778 95.647 C 102.981 87.443 107.499 76.536 107.499 64.935 C 107.499 53.334 102.981 42.426 94.777 34.223 Z  M 48.796 27.926 L 48.796 30.557 C 47.658 31.565 45.389 33.786 44.493 36.175 C 43.902 37.75 43.719 39.851 43.543 41.884 C 43.386 43.688 43.224 45.554 42.796 46.694 C 42.302 48.011 37.889 50.012 33.158 51.063 C 31.829 51.358 29.222 50.328 27.226 49.251 C 31.339 39.628 39.118 31.933 48.796 27.926 Z  M 98.445 72.486 C 93.905 66.433 90.519 64.195 87.79 65.445 C 86.52 66.026 85.288 66.76 84.201 67.407 C 83.207 67.998 81.762 68.859 81.073 69.025 C 81.052 68.951 81.029 68.853 81.008 68.728 C 80.621 66.403 84.295 63.673 87.558 62.041 C 87.897 61.872 88.499 61.702 89.136 61.523 C 91.573 60.837 95.653 59.689 97.232 54.952 C 98.13 52.259 98.903 48.872 99.446 46.203 C 102.419 51.795 104.105 58.171 104.105 64.935 C 104.105 69.394 103.372 73.686 102.02 77.695 C 101.071 76.201 99.823 74.324 98.445 72.486 Z  M 64.065 104.975 C 60.688 104.975 57.407 104.552 54.272 103.761 C 54.644 102.203 55.714 99.699 58.776 98.798 C 59.497 98.586 60.153 98.403 60.732 98.242 C 65.191 97.001 66.682 96.381 68.378 91.633 C 69.868 87.46 72.386 85.973 74.245 85.973 C 75.881 85.973 78.059 85.182 80.164 84.418 C 81.545 83.917 83.63 83.16 84.227 83.233 C 85.423 83.442 88.236 84.885 89.728 85.746 L 96.055 88.988 C 88.741 98.69 77.124 104.975 64.065 104.975 Z " fill="rgb(0,0,0)"/></g></g></svg>